<svg width="259" height="56" viewBox="0 0 259 56" fill="none" xmlns="http://www.w3.org/2000/svg">
<path d="M3.66211 43.7793V41.0938C7.32422 42.3958 11.3607 43.0469 15.7715 43.0469C23.0794 43.0469 26.7334 40.2799 26.7334 34.7461C26.7334 30.6771 24.3571 28.6426 19.6045 28.6426H12.4268C5.93262 28.6426 2.68555 25.7129 2.68555 19.8535C2.68555 13.1803 7.44629 9.84375 16.9678 9.84375C20.874 9.84375 24.6582 10.332 28.3203 11.3086V13.75C24.6582 12.6107 20.874 12.041 16.9678 12.041C9.15527 12.041 5.24902 14.6452 5.24902 19.8535C5.24902 24.0853 7.6416 26.2012 12.4268 26.2012H19.6045C26.0661 26.2012 29.2969 29.0495 29.2969 34.7461C29.2969 41.7448 24.7884 45.2441 15.7715 45.2441C11.3607 45.2441 7.32422 44.7559 3.66211 43.7793ZM35.8887 45V10.0879H38.4521V26.2012H62.2559V10.0879H64.8193V45H62.2559V28.3984H38.4521V45H35.8887ZM74.2432 27.4463C74.2432 37.8467 79.1504 43.0469 88.9648 43.0469C98.6003 43.0469 103.418 37.8467 103.418 27.4463C103.418 17.1761 98.6003 12.041 88.9648 12.041C79.1504 12.041 74.2432 17.1761 74.2432 27.4463ZM71.4355 27.5928C71.4355 15.7601 77.2786 9.84375 88.9648 9.84375C100.472 9.84375 106.226 15.7601 106.226 27.5928C106.226 39.3604 100.472 45.2441 88.9648 45.2441C77.2786 45.2441 71.4355 39.3604 71.4355 27.5928ZM112.842 45V10.0879H127.49C134.294 10.0879 137.695 13.2861 137.695 19.6826C137.695 25.9814 132.251 29.9935 121.362 31.7188L120.923 29.375C130.2 28.0892 134.839 24.9235 134.839 19.8779C134.839 14.8649 132.251 12.3584 127.075 12.3584H115.405V45H112.842ZM143.701 45V10.0879H158.35C165.153 10.0879 168.555 13.2861 168.555 19.6826C168.555 25.9814 163.11 29.9935 152.222 31.7188L151.782 29.375C161.06 28.0892 165.698 24.9235 165.698 19.8779C165.698 14.8649 163.11 12.3584 157.935 12.3584H146.265V45H143.701ZM178.345 10.0879V45H175.781V10.0879H178.345ZM191.187 10.0879V45H188.623V10.0879H191.187Z" fill="black"/>
<path d="M213.215 43L234 7L254.785 43H213.215Z" fill="#070101" stroke="black"/>
</svg>
